<svg width="250" height="250" viewBox="0 0 250 250" fill="none" xmlns="http://www.w3.org/2000/svg">
<path d="M46.2786 76.0123c-1.0206 1.9513-2.4588 3.4532-4.3146 4.5113-1.8577 1.0562-4.0093 1.5861-6.4607 1.5861-2.3745 0-4.5917-.5768-6.6516-1.7284-2.0618-1.148-3.5918-2.6705-4.5955-4.5637-.927 1.8932-2.4195 3.4157-4.4813 4.5637-2.0581 1.1516-4.2772 1.7284-6.6536 1.7284-2.4494 0-4.6217-.5299-6.515-1.5861-1.8914-1.0581-3.3596-2.56-4.3989-4.5113C1.1719 74.0648.6494 71.827.6494 69.3026V51.9861H7.8872V68.9693c0 1.9326.5861 3.4606 1.7547 4.5936 1.1686 1.1311 2.7173 1.6966 4.6498 1.6966 1.9307 0 3.4607-.5655 4.5937-1.6966 1.1311-1.133 1.6985-2.661 1.6985-4.5936V51.9861H27.876V68.9693c0 1.9326.5936 3.4606 1.7828 4.5936 1.1872 1.1311 2.764 1.6966 4.7322 1.6966 1.8558 0 3.3483-.573 4.4813-1.7247 1.1329-1.1498 1.6985-2.6723 1.6985-4.5655V51.9861h7.2378V69.3026c0 2.5244-.5075 4.7622-1.53 6.7097ZM85.4992 51.9869V81.7734H78.2595V77.0431c-1.0749 1.631-2.4588 2.8857-4.1479 3.7584-1.6873.8726-3.6292 1.3071-5.8184 1.3071-2.8221 0-5.2996-.6386-7.4344-1.9195-2.133-1.2809-3.794-3.0805-4.9794-5.4007-1.1892-2.3202-1.7847-4.985-1.7847-7.9907 0-2.97.5955-5.5973 1.7847-7.8782 1.1854-2.2847 2.8464-4.0562 4.9794-5.3184 2.1348-1.2603 4.5955-1.8914 7.3801-1.8914 2.191 0 4.1386.4345 5.8465 1.309 1.706.8708 3.0992 2.1236 4.1741 3.7566V51.9869h7.2397Zm-9.8558 21.852c1.5225-1.4644 2.3952-3.4026 2.6161-5.8164V65.9082c-.2209-2.4138-1.0936-4.352-2.6161-5.8202-1.5224-1.4644-3.4532-2.1985-5.7902-2.1985-2.4869 0-4.5113.8427-6.0693 2.5318-1.5581 1.6911-2.3577 3.8708-2.3933 6.545.0356 2.6704.8352 4.852 2.3933 6.5393 1.558 1.6929 3.5824 2.5337 6.0693 2.5337 2.337 0 4.2678-.7322 5.7902-2.2004ZM105.905 53.2955c1.724-1.0206 3.737-1.5487 6.041-1.588v7.0168c-3.083-.1854-5.539.5281-7.377 2.1423-1.838 1.6161-2.758 3.7959-2.758 6.5431V81.7749H94.5751V51.9865h7.2359v5.7341c1.004-1.927 2.367-3.4026 4.094-4.4251Zm56.597 22.7168c-1.022 1.9513-2.458 3.4532-4.314 4.5113-1.86 1.0562-4.01 1.5861-6.459 1.5861-2.375 0-4.594-.5768-6.655-1.7284-2.06-1.148-3.59-2.6705-4.594-4.5637-.927 1.8932-2.42 3.4157-4.481 4.5637-2.06 1.1516-4.277 1.7284-6.654 1.7284-2.449 0-4.622-.5299-6.515-1.5861-1.891-1.0581-3.359-2.56-4.399-4.5113-1.037-1.9475-1.558-4.1853-1.558-6.7097V51.9861h7.238V68.9693c0 1.9326.586 3.4606 1.755 4.5936 1.17 1.1311 2.717 1.6966 4.648 1.6966 1.93 0 3.462-.5655 4.593-1.6966 1.133-1.133 1.697-2.661 1.697-4.5936V51.9861H144.1V68.9693c0 1.9326.592 3.4606 1.781 4.5936 1.189 1.1311 2.766 1.6966 4.732 1.6966 1.856 0 3.348-.573 4.483-1.7247 1.129-1.1498 1.7-2.6723 1.7-4.5655V51.9861h7.235V69.3026c0 2.5244-.506 4.7622-1.529 6.7097Zm16.397-35.6059c.779.8183 1.169 1.8576 1.169 3.1198 0 1.2229-.39 2.2453-1.169 3.0599-.779.8165-1.762 1.2248-2.951 1.2248-1.188 0-2.171-.4083-2.95-1.2248-.779-.8146-1.172-1.837-1.172-3.0599 0-1.2622.393-2.3015 1.172-3.1198.779-.8165 1.762-1.2248 2.95-1.2248 1.189 0 2.172.4083 2.951 1.2248Zm-6.515 11.5805h7.24V81.7734h-7.24V51.9869Zm29.543 6.1247c-2.414 0-4.369.8184-5.875 2.4513-1.501 1.6311-2.254 3.7491-2.254 6.3465 0 2.6722.753 4.8239 2.254 6.4588 1.506 1.6348 3.461 2.4494 5.875 2.4494 3.564 0 6.234-1.1685 8.019-3.5056l4.507 3.7284c-1.333 1.9289-3.097 3.4158-5.286 4.4532-2.193 1.0394-4.734 1.56-7.63 1.56-2.932 0-5.541-.6311-7.822-1.8933-2.282-1.2603-4.056-3.0337-5.322-5.3165-1.258-2.2846-1.887-4.9082-1.887-7.8783 0-3.0075.638-5.661 1.919-7.9625 1.281-2.3015 3.064-4.0843 5.346-5.3464 2.281-1.2622 4.907-1.8914 7.879-1.8914 2.709 0 5.129.4719 7.266 1.4176 2.133.9494 3.867 2.2921 5.204 4.0374l-4.399 4.1779c-2.002-2.191-4.603-3.2865-7.794-3.2865Zm38.775 23.6633-8.074-13.0281-4.564 4.7903v8.2378h-7.24V40.4603h7.24V64.4041l12.249-12.3596h8.35L237.639 63.5146l11.694 18.2603h-8.631ZM118.009 146.377V101.729c0-1.7414-1.412-3.1552-3.155-3.1552H26.9756C12.9457 98.5738.912 109.548.6554 123.576c-.264 14.292 11.2397 25.958 25.4719 25.958l88.7267-.001c1.743 0 3.155-1.412 3.155-3.156ZM.65 208.31V163.662c0-1.741 1.412-3.153 3.1554-3.153l87.8783-.002c14.0303 0 26.0633 10.973 26.3203 25.002.264 14.29-11.24 25.958-25.472 25.958l-88.7266-.001C2.062 211.466.65 210.054.65 208.31Zm182.389-55.635V101.728c0-1.7419-1.412-3.1557-3.155-3.1557H135.661c-1.743 0-3.157 1.4157-3.153 3.1607l.08 51.388c0 32.221 26.12 58.343 58.341 58.343s58.341-26.122 58.341-58.343l.08-51.388c.002-1.745-1.412-3.1607-3.155-3.1607H201.97c-1.74 0-3.153 1.4138-3.153 3.1557v50.947c0 11.092-15.778 11.105-15.778 0Z" fill="black"/>
</svg>
